<svg xmlns="http://www.w3.org/2000/svg" viewBox="0 0 48 48">
 <path fill="#FFFFFF" d="M22.9,29c0,0.3-0.1,0.5-0.2,0.6c-0.7,0.7-1.5,1.1-2.5,1.3c-0.3,0.1-0.7,0.1-1.1,0.1c-1.4,0-2.3-0.2-2.7-0.7
	c-0.1-0.1-0.2-0.4-0.2-0.7c0-0.9,0.3-2,0.9-3.5c0.1-0.2,0.1-0.3-0.1-0.3c-0.1,0-0.1,0.1-0.2,0.2c-0.6,1.1-1.5,2.1-2.6,3.1
	c-1.5,1.4-2.9,2.1-4.2,2.1c-0.7,0-1.4-0.2-2-0.6C7.4,29.9,7,29,7,27.7c0-2.3,1.2-4.9,3.5-7.7c1.4-1.8,3.3-3.2,5.5-4.4
	c1.9-1,3.6-1.5,4.9-1.5c0.4,0,0.8,0.2,1.1,0.6c0.2,0.3,0.4,0.5,0.4,0.6c0,0.2-0.3,0.4-1,0.4c-2.6,0.3-5.4,2.1-8.5,5.6
	c-0.3,0.4-0.6,0.8-1,1.2s-0.6,1-0.9,1.5c-0.8,1.4-1.1,2.5-1.1,3.3c0,0.8,0.3,1.3,1,1.5c0.2,0.1,0.3,0.1,0.6,0.1
	c1.4,0,3.2-1.7,5.5-5.2c0.4-0.6,0.9-1.5,1.5-2.5s1.2-2.3,2-3.8c0.3-0.5,0.8-0.7,1.5-0.6c0.5,0.1,0.8,0.3,0.8,0.7
	c0,0.2-0.1,0.3-0.2,0.5c-0.2,0.3-0.4,0.8-0.6,1.5s-0.6,1.4-1,2.4c-0.5,1.3-0.9,2.4-1.3,3.2s-0.6,1.6-0.7,2.2c-0.2,0.6-0.3,1-0.3,1.4
	s0.1,0.6,0.3,0.7c0.1,0.1,0.4,0.1,0.9,0.2c0.4,0,0.9-0.1,1.4-0.4c0.6-0.3,1-0.7,1.4-1.2c0.1-0.1,0.2-0.1,0.2,0.1
	C22.9,28.3,22.9,28.6,22.9,29z M41,29c0,0.3-0.1,0.5-0.2,0.6c-0.7,0.7-1.5,1.1-2.5,1.3c-0.5,0.1-1.1,0.2-1.6,0.2
	c-0.7,0-1.4-0.1-1.9-0.3c-0.9-0.4-1.4-0.9-1.4-1.7c0-0.5,0.2-1.3,0.6-2.4c0.2-0.5,0.4-0.9,0.5-1.3c0.2-0.4,0.3-0.7,0.5-1.1
	c0.2-0.4,0.3-0.7,0.3-0.9c0-0.3-0.1-0.4-0.4-0.4c-0.2,0-0.6,0.3-1,0.9c-0.3,0.4-0.6,0.8-1,1.4s-0.8,1.1-1.2,1.8
	c-0.5,0.8-1,1.5-1.3,2.1c-0.3,0.6-0.5,1-0.6,1.3c-0.1,0.4-0.6,0.6-1.4,0.6c-0.9,0-1.3-0.2-1.2-0.6c0.4-1,0.8-2.1,1.3-3.3
	c0.5-1.1,0.9-2.4,1.4-3.6c0.2-0.5,0.1-0.7-0.2-0.8c-0.4-0.1-0.8,0.3-1.4,1c-0.5,0.5-1.2,1.7-2.2,3.6c-0.9,1.6-1.5,2.7-1.7,3.2
	c-0.1,0.3-0.6,0.5-1.4,0.5s-1.2-0.2-1.1-0.6c0.4-1.4,0.8-2.9,1.3-4.5s0.9-3.2,1.4-4.9c0.1-0.5,0.5-0.8,1.2-0.8
	c0.3,0,0.6,0.1,0.9,0.2c0.4,0.2,0.6,0.4,0.6,0.6c0,0.1,0,0.2-0.1,0.4c-0.2,0.3-0.4,0.8-0.6,1.5C26.2,23.5,26,24,26,24.2
	c0,0.3,0.1,0.2,0.4-0.3c1.5-2.2,2.9-3.4,4.2-3.4c0.1,0,0.1,0,0.2,0s0.1,0,0.2,0c0.8,0.2,1.3,0.6,1.3,1.4c0,0.5-0.2,1.1-0.5,1.9
	c-0.1,0.3-0.2,0.4-0.1,0.4c0,0,0.3-0.3,0.8-1c0.6-0.8,1.2-1.4,1.7-1.8c0.8-0.6,1.5-1,2.2-1c0.4,0,0.7,0.1,1,0.3
	c0.5,0.3,0.8,0.7,0.8,1.4c0,0.3-0.1,0.6-0.2,1c-0.2,0.6-0.5,1.6-1,2.9c-0.3,0.7-0.5,1.3-0.6,1.6s-0.2,0.6-0.2,0.6
	c-0.1,0.2-0.1,0.3-0.1,0.4c0,0.3,0.1,0.4,0.4,0.6c0.3,0.2,0.8,0.3,1.5,0.3c0.3,0,0.7-0.2,1.2-0.5c0.6-0.3,1.1-0.7,1.4-1.2
	c0.1-0.1,0.2-0.1,0.2,0.1C41,28.3,41,28.6,41,29z"/>
</svg>
